<svg width="100" height="100" viewBox="0 0 100 100" fill="none" xmlns="http://www.w3.org/2000/svg">
<path d="M63.0898 32.5449H81.9537C83.7385 32.5449 85.3443 33.6315 86.0032 35.2896L93.0111 52.8052C93.4213 53.835 93.6351 54.9346 93.6351 56.043V81.9978C93.6351 84.4065 91.6802 86.3614 89.2715 86.3614H81.2818" stroke="black" stroke-width="1.5" stroke-linecap="round" stroke-linejoin="round"/>
<path d="M67.4523 86.7424H33.2852" stroke="black" stroke-width="1.5" stroke-linecap="round" stroke-linejoin="round"/>
<path d="M93.6341 63.0892H76.1797V45.6348H90.1433" stroke="black" stroke-width="1.5" stroke-linecap="round" stroke-linejoin="round"/>
<path d="M52.4256 23.8184H58.7267C61.1354 23.8184 63.0903 25.7733 63.0903 28.182V67.4545H6.36328" stroke="black" stroke-width="1.5" stroke-linecap="round" stroke-linejoin="round"/>
<path d="M79.2534 81.837C81.9545 84.5381 81.9545 88.9148 79.2534 91.6115C76.5524 94.3126 72.1756 94.3126 69.4789 91.6115C66.7779 88.9104 66.7779 84.5337 69.4789 81.837C72.18 79.1403 76.5567 79.1403 79.2534 81.837" stroke="black" stroke-width="1.5" stroke-linecap="round" stroke-linejoin="round"/>
<path d="M31.2518 81.837C33.9529 84.5381 33.9529 88.9148 31.2518 91.6115C28.5507 94.3126 24.174 94.3126 21.4773 91.6115C18.7806 88.9104 18.7762 84.5337 21.4773 81.837C24.1784 79.1403 28.5507 79.1403 31.2518 81.837" stroke="black" stroke-width="1.5" stroke-linecap="round" stroke-linejoin="round"/>
<path d="M19.4541 86.7242H10.7269C8.31818 86.7242 6.36328 84.7693 6.36328 82.3606V28.182C6.36328 25.7733 8.31818 23.8184 10.7269 23.8184H16.129" stroke="black" stroke-width="1.5" stroke-linecap="round" stroke-linejoin="round"/>
<path d="M34.2772 42.6598C24.254 42.6598 16.1289 34.5348 16.1289 24.5116C16.1289 14.6934 24.4765 6.35456 34.2903 6.36329C44.3091 6.37202 52.4211 14.4927 52.4211 24.5116C52.4211 34.5304 44.3004 42.6598 34.2772 42.6598" stroke="black" stroke-width="1.5"/>
<path d="M42.3393 20.4805L32.255 30.5648L26.207 24.5124" stroke="black" stroke-width="1.5" stroke-linecap="round" stroke-linejoin="round"/>
</svg>
