<svg width="100" height="100" viewBox="0 0 100 100" fill="none" xmlns="http://www.w3.org/2000/svg">
<path d="M29.6445 54.6445C36.4857 56.5601 49.347 63.6748 46.0633 76.8098C40.5904 77.3571 29.6445 73.6903 29.6445 54.6445Z" stroke="black" stroke-width="1.5"/>
<path d="M46.0625 76.8102C53.1773 78.1785 68.2278 74.019 71.5116 46.4355C70.8548 46.4355 70.6906 46.4355 70.6906 46.4355" stroke="black" stroke-width="1.5"/>
<path d="M71.5122 46.4355C64.671 47.5301 50.0036 53.1672 46.0631 66.959H45.2422" stroke="black" stroke-width="1.5"/>
<path d="M46.8828 75.9898C49.8929 74.0743 56.5699 68.9298 59.1969 63.6758" stroke="black" stroke-width="1.5"/>
<path d="M46.0636 75.9893C43.8744 73.5265 39.4961 68.2725 39.4961 66.959" stroke="black" stroke-width="1.5"/>
<path d="M80.4767 24.5527H21.3644C17.4235 24.5527 15.7815 28.4936 15.4531 30.464V91.5467C15.4531 96.2757 19.3939 98.1148 21.3644 98.4432H78.5063C83.2353 98.4432 84.4175 93.8455 84.4175 91.5467V30.464C85.2057 26.5231 82.1187 24.8811 80.4767 24.5527Z" stroke="black" stroke-width="1.5"/>
<path d="M28.2617 24.5531V11.7455C29.2469 8.46145 32.9907 1.69637 40.0842 0.908203H62.7439C65.3711 1.89341 71.2167 5.44015 73.5812 11.7455V24.5531" stroke="black" stroke-width="1.5"/>
<path d="M34.1719 24.5532V15.6863C34.8287 13.0591 37.5216 7.80469 43.0387 7.80469H58.802C61.1008 8.13309 65.8955 10.1692 66.6837 15.6863V24.5532" stroke="black" stroke-width="1.5"/>
</svg>
