<svg width="100" height="100" viewBox="0 0 100 100" fill="none" xmlns="http://www.w3.org/2000/svg">
<path d="M89.9243 19.5524C75.8226 20.1934 56.8067 8.60227 49.0614 2.72656C28.5501 18.1102 15.4098 20.3537 11.4035 19.5524C-4.62116 68.2674 29.8319 91.6634 49.0614 97.272C93.9305 79.3244 94.9988 37.9808 89.9243 19.5524Z" stroke="black" stroke-width="1.5"/>
<path d="M17.4023 27.1295C25.7351 29.6935 40.7806 19.8191 48.2588 13.9434C61.7193 26.1221 76.8361 28.6326 82.7119 28.3655C83.9939 69.3887 60.2773 83.3835 48.2588 85.2531C13.6455 71.7924 13.9303 40.4834 17.4023 27.1295Z" stroke="black" stroke-width="1.5"/>
<path d="M44.831 37.213L48.8674 32.7266L52.9037 37.213L59.1825 35.8671V42.1481L65.9098 44.3913L61.8734 49.3263L65.0128 55.6073L59.1825 57.8505V63.6829L52.9037 62.337L48.8674 67.272L44.831 62.337L38.5522 63.6829V57.8505L32.2734 55.6073L35.4128 49.3263L32.2734 44.3913L38.5522 42.1481V35.8671L44.831 37.213Z" stroke="black" stroke-width="1.5"/>
<path d="M42.1406 49.7755L46.177 54.2619L55.5952 45.2891" stroke="black" stroke-width="1.5"/>
</svg>
